<svg
        width="28"
        height="28"
        viewBox="0 0 28 28"
        fill="none"
        xmlns="http://www.w3.org/2000/svg"
>
    <path
            d="M26.7549 13.4547L26.3696 13.8195V13.8333L19.7931 20.063L14.8125 14.8934L17.8875 2.55084C18.1558 1.46321 17.4473 0.382464 16.3466 0.196603C15.4798 0.0451611 14.5855 -0.0167924 13.6775 0.00385876C6.1791 0.169068 0.10474 6.29559 0.00155128 13.8057C-0.0190864 15.2031 0.166653 16.5592 0.531252 17.8327C1.02656 19.5743 2.38176 20.9442 4.12221 21.4536C4.12221 21.4536 4.12221 21.4467 4.11533 21.4467L5.95208 21.9905L6.11718 22.0387L10.9877 23.4843L10.3961 25.8454C10.3961 25.8454 10.3961 25.8454 10.3892 25.8454L10.231 26.4787C10.0934 27.0156 10.4373 27.5594 10.9739 27.6764C11.9439 27.8898 12.9483 28 13.987 28C21.7193 28.0137 28 21.7289 28 14.0054V13.9916C28 13.3445 27.2226 13.0072 26.7549 13.4547ZM14.0008 1.62153C14.4754 1.62153 14.9501 1.64907 15.411 1.70414C15.9407 1.76609 16.2916 2.2686 16.1677 2.78488L13.4917 13.5097L5.40174 5.11158C7.63061 2.95009 10.6644 1.62153 14.0008 1.62153ZM4.90644 19.9942C3.44116 19.5605 2.31985 18.3834 1.96213 16.8965C1.742 15.9672 1.62505 14.9966 1.62505 14.0054C1.62505 11.1004 2.62942 8.42954 4.30795 6.31624L13.0239 15.3683L11.3867 21.9216L4.90644 19.9942ZM18.2177 25.6526C18.0114 25.7352 15.3216 26.7471 12.3979 26.3066C12.1778 26.2928 12.0264 26.0794 12.0815 25.866L12.5561 23.9592L14.9295 24.6614L16.7249 25.1983L18.2246 25.6457C18.2315 25.6457 18.2246 25.6457 18.2177 25.6526ZM20.4053 24.5994L18.087 23.911L12.9483 22.3829L14.3516 16.752L18.6167 21.1782L19.7449 22.3484L21.3203 23.9868C21.0245 24.2002 20.7218 24.4067 20.4053 24.5994ZM25.9087 17.3715C25.3033 19.5192 24.127 21.4329 22.5654 22.9336L20.9213 21.2264L25.3515 17.0342C25.5991 16.8002 26.005 17.0411 25.9087 17.3715Z"
            fill="#3888FF"
    />
</svg>